<svg width="168" height="59" viewBox="0 0 168 59" fill="none" xmlns="http://www.w3.org/2000/svg">
<g id="mixology-logo">
<path id="Subtract" fill-rule="evenodd" clip-rule="evenodd" d="M122.898 38.1148C62.7818 41.233 18.462 50.1381 1.44235 55.0793C0.38158 55.3873 -0.228688 56.4969 0.0792773 57.5576C0.387243 58.6184 1.49682 59.2287 2.55759 58.9207C19.0963 54.1191 62.4711 45.3724 121.496 42.1945L122.898 38.1148ZM133.792 41.6248C136.593 41.516 139.427 41.4202 142.29 41.3384L143.679 37.2985C140.803 37.3755 137.958 37.4665 135.143 37.5707L133.792 41.6248ZM155.813 37.0622L154.473 41.08C158.269 41.0273 162.112 41 166 41C167.105 41 168 40.1046 168 39C168 37.8954 167.105 37 166 37C162.569 37 159.172 37.0212 155.813 37.0622Z" fill="#707070"/>
<g id="Logo">
<path d="M36.2109 41.7663C36.2445 40.4448 36.2923 38.9152 36.3543 37.1774C36.4162 35.4396 36.4874 33.6244 36.5678 31.7317C36.6469 29.8239 36.7255 27.9084 36.8035 25.9853C36.8967 24.061 36.9918 22.2593 37.089 20.58C36.4061 22.198 35.7161 23.8242 35.0192 25.4586C34.3223 27.0931 33.6573 28.6483 33.0244 30.1243C32.4054 31.5839 31.8294 32.9098 31.2964 34.1019C30.7786 35.2928 30.3574 36.2538 30.0327 36.9848C29.7204 37.4848 29.4064 37.9619 29.0905 38.4161C28.7746 38.8704 28.4545 39.2713 28.1303 39.6189C27.8212 39.9653 27.5073 40.2507 27.1886 40.4751C26.8688 40.6843 26.5493 40.8015 26.2302 40.8266C25.8048 40.8601 25.4557 40.7955 25.183 40.633C24.9255 40.4692 24.7824 40.2044 24.7536 39.8386C24.7476 39.7624 24.7422 39.6938 24.7374 39.6329C24.7466 39.5555 24.7634 39.4775 24.7878 39.3989C24.5263 37.2418 24.2864 35.0677 24.0681 32.8765C23.8486 30.6701 23.6548 28.5 23.4869 26.3663C23.4473 25.8633 23.4077 25.3603 23.3681 24.8574C23.3286 24.3544 23.2972 23.8585 23.274 23.3695C22.7742 24.7891 22.2254 26.2662 21.6276 27.8008C21.0299 29.3354 20.4005 30.8571 19.7396 32.366C19.0774 33.8597 18.3889 35.3094 17.674 36.7152C16.9578 38.1058 16.2327 39.3821 15.4986 40.544C14.7633 41.6907 14.0236 42.6844 13.2795 43.5251C12.5494 44.3493 11.8316 44.9426 11.1263 45.3048C10.5086 45.6141 9.96837 45.8407 9.50575 45.9844C9.04433 46.1434 8.63129 46.2373 8.26663 46.266C7.71965 46.309 7.30041 46.227 7.00892 46.0199C6.73383 45.8268 6.58369 45.5703 6.5585 45.2502C6.52851 44.8692 6.65686 44.4604 6.94355 44.0237C7.23024 43.5871 7.65327 43.2318 8.21266 42.9577C8.88999 42.6284 9.60231 41.9665 10.3496 40.9722C11.1109 39.9615 11.8794 38.7509 12.6551 37.3403C13.4308 35.9297 14.2021 34.3661 14.969 32.6495C15.7359 30.9329 16.4706 29.1958 17.1732 27.4382C17.8909 25.6795 18.5584 23.963 19.1758 22.2889C19.792 20.5995 20.3371 19.0767 20.8114 17.7205C21.2856 16.3643 21.6708 15.2375 21.9671 14.34C22.2774 13.4261 22.4697 12.8589 22.5441 12.6384C22.7196 12.1491 22.9889 11.7829 23.352 11.5396C23.715 11.2963 24.0941 11.1592 24.4891 11.1281C25.0361 11.085 25.428 11.2075 25.6647 11.4956C25.9002 11.7685 26.0479 12.2859 26.1079 13.048C26.305 13.9986 26.4751 14.8977 26.6183 15.7452C26.7754 16.5763 26.9198 17.4391 27.0513 18.3335C27.1817 19.2128 27.2952 20.17 27.392 21.2052C27.5027 22.2239 27.6109 23.404 27.7164 24.7452C27.792 25.7054 27.8526 26.7664 27.8982 27.9284C27.9589 29.0891 28.0457 30.3858 28.1585 31.8185C29.7203 28.3524 31.1005 25.2993 32.2993 22.6592C33.512 20.0027 34.5678 17.7803 35.4666 15.992C36.3795 14.1872 37.1588 12.8224 37.8045 11.8974C38.4491 10.9572 38.9841 10.4704 39.4095 10.4369L39.569 10.4243C39.6146 10.4207 39.6602 10.4172 39.7058 10.4136C39.7502 10.3947 39.7951 10.3835 39.8407 10.3799C40.2054 10.3512 40.5121 10.5571 40.7608 10.9976C41.0095 11.4381 41.1626 12.0242 41.2202 12.7558C41.2182 13.5074 41.2002 14.4442 41.1662 15.5664C41.1322 16.6886 41.0844 17.9269 41.0229 19.2813C40.9753 20.6192 40.9185 22.0346 40.8525 23.5273C40.7865 25.0201 40.72 26.5052 40.6528 27.9827C40.5844 29.445 40.5206 30.8686 40.4615 32.2534C40.4175 33.6371 40.3861 34.8894 40.3673 36.0104C40.3525 36.2109 40.3535 36.4179 40.3703 36.6313C40.3859 36.8294 40.4021 37.0352 40.4189 37.2485C40.4501 37.6448 40.4894 38.0481 40.537 38.4584C40.5834 38.8535 40.6222 39.2492 40.6534 39.6454C40.6894 40.1027 40.7032 40.5693 40.6948 41.0454C40.6852 41.5062 40.589 41.9355 40.4063 42.3333C40.2375 42.7146 39.9418 43.037 39.5192 43.3003C39.0978 43.5788 38.4996 43.7486 37.7247 43.8095C37.3145 43.8418 36.9752 43.7075 36.7069 43.4066C36.4398 43.1209 36.2745 42.5741 36.2109 41.7663Z" fill="black"/>
<path d="M49.3486 20.3889C49.321 20.0384 49.3536 19.6754 49.4464 19.3C49.5531 18.9083 49.7237 18.5498 49.958 18.2246C50.1923 17.8995 50.4916 17.6229 50.8558 17.3948C51.2353 17.1656 51.6909 17.0301 52.2227 16.9882C53.1039 16.9189 53.7331 17.0457 54.1101 17.3688C54.486 17.6766 54.6943 18.0896 54.7351 18.6078C54.7579 18.8974 54.7223 19.2222 54.6283 19.5823C54.5496 19.9412 54.4082 20.2821 54.2043 20.6048C53.9992 20.9124 53.7221 21.1795 53.373 21.4064C53.024 21.6332 52.5987 21.7664 52.0973 21.8058C51.1553 21.88 50.483 21.7872 50.0803 21.5275C49.6765 21.2526 49.4326 20.873 49.3486 20.3889ZM47.2464 25.7301C47.4711 25.2831 47.7434 24.9549 48.0633 24.7457C48.3832 24.5365 48.7178 24.4182 49.0673 24.3906C49.6447 24.3452 50.1535 24.4969 50.5937 24.8456C51.0479 25.1779 51.2978 25.6337 51.3434 26.2128C51.339 26.3512 51.327 26.4902 51.3074 26.6297C51.303 26.7681 51.2682 26.9088 51.2031 27.052C51.0215 27.465 50.8732 27.8141 50.758 28.0992C50.6429 28.3843 50.5341 28.6535 50.4318 28.907C50.3434 29.144 50.255 29.3809 50.1667 29.6179C50.0783 29.8549 49.9707 30.1394 49.844 30.4715C49.6917 30.8668 49.5195 31.3021 49.3276 31.7773C49.1345 32.2372 48.9501 32.7118 48.7746 33.201C48.6143 33.689 48.4761 34.1677 48.3602 34.6369C48.2594 35.1049 48.224 35.5294 48.254 35.9104C48.2864 36.3219 48.4067 36.5885 48.6151 36.7101C48.8374 36.8153 49.1385 36.8529 49.5183 36.8231C49.9437 36.7896 50.3772 36.6634 50.8186 36.4447C51.2752 36.2247 51.7277 35.9514 52.1759 35.6247C52.6241 35.2981 53.0617 34.9339 53.4888 34.5323C53.9146 34.1154 54.31 33.7009 54.6751 33.2887C55.0554 32.8754 55.4936 32.523 55.8003 32.1461C56.1221 31.7681 56.5452 31.6403 56.7516 31.348C57.0326 31.0345 57.0714 30.6158 57.3752 30.5918C57.6487 30.5703 57.8787 30.6749 58.065 30.9056C58.2665 31.1351 58.3823 31.4404 58.4122 31.8214C58.4398 32.172 58.3781 32.5526 58.2269 32.9632C58.091 33.3726 57.8393 33.7681 57.4718 34.1498C56.7593 35.0033 56.0292 35.8276 55.2815 36.6225C54.5326 37.4022 53.7549 38.1075 52.9484 38.7384C52.1559 39.3529 51.3474 39.8612 50.5229 40.2635C49.6984 40.6658 48.8532 40.901 47.9871 40.9692C46.7564 41.066 45.7594 40.8301 44.9961 40.2614C44.2468 39.6763 43.8193 38.7131 43.7138 37.3719C43.6586 36.6708 43.7034 35.9772 43.8481 35.291C43.9929 34.6048 44.1774 33.9386 44.4017 33.2921C44.6248 32.6305 44.8655 31.9981 45.1238 31.395C45.3809 30.7767 45.5949 30.1924 45.7656 29.6423C45.826 29.4381 45.9311 29.1232 46.0811 28.6973C46.2462 28.2702 46.4183 27.835 46.5975 27.3915C46.801 26.8694 47.0173 26.3156 47.2464 25.7301Z" fill="black"/>
<path d="M58.0778 22.972C58.4577 22.9421 58.7867 22.9469 59.065 22.9863C59.3433 23.0258 59.582 23.145 59.7811 23.344C59.9791 23.5278 60.1374 23.7914 60.2561 24.1348C60.3737 24.4629 60.4541 24.9013 60.4973 25.45L60.7042 28.0791L65.4291 23.4286C66.1536 22.7275 66.9033 22.3464 67.6782 22.2855C68.1341 22.2496 68.5223 22.3264 68.843 22.5158C69.1637 22.7053 69.3378 22.9753 69.3654 23.3259C69.3822 23.5392 69.3242 23.7738 69.1915 24.0297C69.0739 24.2843 68.8804 24.5449 68.6109 24.8115L61.548 31.8083L62.0662 34.896C62.125 35.6428 62.4203 35.9953 62.9521 35.9534C63.5294 35.908 64.2344 35.6378 65.0669 35.1429C65.8981 34.6328 66.8512 33.9213 67.9259 33.0086L70.3958 30.8819C70.6561 30.6927 70.9306 30.5868 71.2192 30.5641C71.5383 30.539 71.8056 30.6329 72.0211 30.846C72.2506 31.0427 72.3792 31.3163 72.4068 31.6668C72.4368 32.0478 72.3272 32.5012 72.0781 33.0269C71.8442 33.5514 71.3824 34.0938 70.6927 34.6541C69.6167 35.5516 68.6672 36.3088 67.8444 36.9256C67.0367 37.5413 66.2896 38.0525 65.603 38.4592C64.9305 38.8495 64.2963 39.1448 63.7006 39.3451C63.12 39.5441 62.5258 39.6675 61.9181 39.7154C60.5506 39.823 59.4944 39.5151 58.7495 38.7916C58.0198 38.0669 57.5866 36.8358 57.4498 35.0983L52.4999 39C52.2292 39.2513 51.7814 39.3858 51.4999 39.5C51.2045 39.6306 50.7582 39.9796 50.4999 40C50.0137 40.0382 50.254 40.503 49.8994 40.2702C49.5447 40.0374 49.3524 39.7305 49.3224 39.3495C49.2888 38.9227 49.5293 38.4821 50.0439 38.0275L56.5814 31.348L56.1442 25.7926C56.0902 25.1068 56.1551 24.5726 56.3391 24.19C56.523 23.8075 56.7381 23.5299 56.9844 23.3571C57.2295 23.1691 57.4654 23.0586 57.6922 23.0254C57.9189 22.9922 58.0474 22.9744 58.0778 22.972Z" fill="black"/>
<path d="M78.5904 25.1532C77.8763 25.2094 77.1993 25.4467 76.5596 25.8651C75.9338 26.2671 75.386 26.7856 74.9162 27.4207C74.4604 28.0393 74.1099 28.734 73.8648 29.5047C73.6185 30.2602 73.5259 31.0266 73.5871 31.8039C73.6099 32.0935 73.6579 32.4118 73.7311 32.7588C73.803 33.0905 73.9194 33.4034 74.0801 33.6974C74.2549 33.9751 74.4868 34.2022 74.7759 34.3788C75.0649 34.5554 75.4374 34.6258 75.8932 34.5899C76.5921 34.5349 77.2539 34.2988 77.8785 33.8816C78.517 33.4479 79.0712 32.9136 79.541 32.2785C80.0096 31.6282 80.3659 30.9101 80.6098 30.1241C80.8537 29.3381 80.9451 28.5565 80.8839 27.7792C80.8599 27.4743 80.8125 27.1637 80.7417 26.8472C80.685 26.5143 80.5698 26.2166 80.3963 25.9542C80.2379 25.6907 80.0154 25.4858 79.7287 25.3397C79.4408 25.1783 79.0614 25.1162 78.5904 25.1532ZM79.4589 21.0363C80.0362 20.9908 80.6576 21.0186 81.3229 21.1196C82.0034 21.2194 82.6392 21.4301 83.2302 21.7516C83.8211 22.0731 84.3229 22.5244 84.7356 23.1053C85.1622 23.6699 85.4103 24.3941 85.4799 25.2781C85.5159 25.7353 85.4965 26.266 85.4217 26.8699C85.3457 27.4587 85.2114 28.0827 85.0186 28.7419C85.185 28.9129 85.3699 29.0287 85.5734 29.0893C85.777 29.15 85.9927 29.1714 86.2206 29.1534C86.5397 29.1283 86.8819 29.0094 87.2474 28.7966C87.628 28.5826 88.0121 28.3146 88.3995 27.9928C88.787 27.6709 89.1714 27.3109 89.5529 26.9129C89.9343 26.5148 90.293 26.1185 90.6289 25.724C90.9647 25.3295 91.2644 24.9609 91.5279 24.6181C91.8054 24.2589 92.0339 23.9572 92.2134 23.713C92.3114 23.5979 92.4364 23.5344 92.5883 23.5225C92.801 23.5057 92.9999 23.6051 93.1851 23.8206C93.369 24.0208 93.4766 24.319 93.5077 24.7153C93.5389 25.1116 93.4534 25.5784 93.251 26.1157C93.0639 26.6519 92.6735 27.227 92.0797 27.8412C91.7462 28.2661 91.3644 28.7563 90.9341 29.3115C90.5039 29.8668 90.0409 30.394 89.5451 30.8931C89.0493 31.3922 88.5253 31.8245 87.9731 32.19C87.4209 32.5555 86.8561 32.761 86.2788 32.8064C85.8837 32.8375 85.4915 32.807 85.102 32.715C84.7278 32.6217 84.3399 32.4529 83.9385 32.2085C83.4587 33.105 82.8969 33.9313 82.2531 34.6875C81.6094 35.4436 80.8743 36.1072 80.0478 36.6783C79.2365 37.2482 78.3403 37.7098 77.359 38.0631C76.3942 38.4304 75.3496 38.6583 74.2253 38.7468C73.7998 38.7803 73.2994 38.7353 72.7241 38.6119C72.1487 38.4885 71.5877 38.2566 71.0411 37.9162C70.5085 37.5594 70.0429 37.0823 69.6443 36.4849C69.2456 35.8875 69.0109 35.1392 68.9401 34.24C68.8922 33.6303 68.9333 32.891 69.0637 32.0219C69.194 31.1529 69.4214 30.2532 69.7456 29.3229C70.0839 28.3761 70.5221 27.4368 71.0603 26.505C71.6125 25.5567 72.2864 24.6985 73.0821 23.9305C73.8766 23.1472 74.8041 22.4991 75.8644 21.9862C76.9236 21.4581 78.1218 21.1415 79.4589 21.0363Z" fill="black"/>
<path d="M93.4885 30.0076C93.349 30.3713 93.2142 30.796 93.0843 31.2816C92.9683 31.7508 92.9248 32.1683 92.9536 32.5341C92.9715 32.7627 93.0315 32.942 93.1335 33.072C93.2354 33.202 93.4156 33.2569 93.6739 33.2365C93.9929 33.2114 94.3808 33.0889 94.8374 32.8689C95.308 32.6325 95.8048 32.3404 96.3278 31.9925C96.8648 31.6282 97.414 31.2246 97.9754 30.7817C98.5508 30.3223 99.1179 29.856 99.6769 29.3826C100.235 28.8939 100.763 28.4153 101.261 27.9467C101.773 27.4617 102.228 27.0195 102.624 26.6202C102.737 26.504 102.876 26.4164 103.039 26.3575C103.203 26.2987 103.345 26.2644 103.467 26.2549C103.771 26.231 104.03 26.3179 104.244 26.5157C104.458 26.7136 104.579 26.9878 104.607 27.3383C104.632 27.6584 104.554 28.0249 104.372 28.4379C104.191 28.851 103.849 29.2689 103.347 29.6918C102.446 30.6676 101.533 31.5982 100.609 32.4837C99.6849 33.3692 98.7537 34.1633 97.8153 34.8659C96.8908 35.5521 95.9568 36.1163 95.0131 36.5587C94.0847 36.9998 93.1647 37.2562 92.253 37.328C91.6301 37.377 91.0993 37.3344 90.6606 37.2002C90.2372 37.0649 89.8849 36.8626 89.6039 36.5933C89.338 36.3229 89.1362 35.9937 88.9987 35.6058C88.8611 35.2179 88.775 34.8029 88.7402 34.3609C88.6814 33.6141 88.7278 32.8437 88.8793 32.0496C89.0449 31.2392 89.2538 30.4943 89.5061 29.815C89.9443 28.5843 90.3908 27.3607 90.8454 26.144C91.3 24.9274 91.7169 23.8134 92.0959 22.8021L97.8411 7.51271C98.0678 6.89677 98.3994 6.44894 98.8361 6.16921C99.2879 5.88828 99.7493 5.72928 100.22 5.69221C100.691 5.65514 101.127 5.75121 101.527 5.98041C101.943 6.20842 102.173 6.61201 102.219 7.19118C102.24 7.46552 102.195 7.76049 102.082 8.07607C101.984 8.39046 101.851 8.73071 101.681 9.0968C101.357 9.84304 100.97 10.7553 100.52 11.8335C100.085 12.9106 99.6118 14.0827 99.1 15.3498C98.6034 16.6158 98.0882 17.9369 97.5544 19.3131C97.0346 20.6728 96.52 22.0015 96.0106 23.2992C95.5164 24.5956 95.0477 25.8286 94.6047 26.9983C94.1757 28.1516 93.8036 29.1547 93.4885 30.0076Z" fill="black"/>
<path d="M109.951 22.6851C109.237 22.7413 108.56 22.9786 107.92 23.397C107.294 23.799 106.747 24.3175 106.277 24.9526C105.821 25.5712 105.47 26.2659 105.225 27.0366C104.979 27.7921 104.886 28.5585 104.948 29.3358C104.97 29.6254 105.018 29.9437 105.092 30.2906C105.164 30.6224 105.28 30.9352 105.441 31.2293C105.615 31.5069 105.847 31.7341 106.136 31.9107C106.425 32.0873 106.798 32.1576 107.254 32.1218C107.953 32.0668 108.614 31.8307 109.239 31.4134C109.878 30.9798 110.432 30.4454 110.902 29.8104C111.37 29.1601 111.726 28.4419 111.97 27.6559C112.214 26.87 112.306 26.0883 112.244 25.311C112.22 25.0062 112.173 24.6955 112.102 24.3791C112.045 24.0461 111.93 23.7485 111.757 23.4861C111.598 23.2225 111.376 23.0177 111.089 22.8715C110.801 22.7102 110.422 22.648 109.951 22.6851ZM110.819 18.5681C111.397 18.5227 112.018 18.5505 112.683 18.6515C113.364 18.7513 114 18.9619 114.591 19.2835C115.182 19.605 115.683 20.0563 116.096 20.6372C116.523 21.2017 116.771 21.926 116.84 22.81C116.876 23.2672 116.857 23.7978 116.782 24.4018C116.706 24.9905 116.572 25.6145 116.379 26.2738C116.546 26.4447 116.73 26.5605 116.934 26.6212C117.138 26.6819 117.353 26.7032 117.581 26.6853C117.9 26.6602 118.242 26.5412 118.608 26.3284C118.989 26.1144 119.373 25.8465 119.76 25.5246C120.148 25.2028 120.532 24.8428 120.913 24.4447C121.295 24.0467 121.654 23.6504 121.989 23.2559C122.325 22.8614 122.625 22.4927 122.888 22.15C123.166 21.7907 123.394 21.489 123.574 21.2449C123.672 21.1298 123.797 21.0663 123.949 21.0544C124.162 21.0376 124.36 21.137 124.546 21.3524C124.73 21.5527 124.837 21.8509 124.868 22.2472C124.899 22.6435 124.814 23.1103 124.612 23.6476C124.424 24.1837 124.034 24.7589 123.44 25.373C123.107 25.798 122.725 26.2881 122.295 26.8434C121.864 27.3987 121.401 27.9259 120.906 28.4249C120.41 28.924 119.886 29.3563 119.334 29.7218C118.781 30.0874 118.217 30.2928 117.639 30.3383C117.244 30.3694 116.852 30.3389 116.463 30.2468C116.088 30.1536 115.7 29.9848 115.299 29.7403C114.819 30.6369 114.257 31.4632 113.614 32.2193C112.97 32.9754 112.235 33.639 111.408 34.2102C110.597 34.7801 109.701 35.2417 108.72 35.595C107.755 35.9623 106.71 36.1902 105.586 36.2787C105.16 36.3121 104.66 36.2672 104.085 36.1438C103.509 36.0203 102.948 35.7885 102.402 35.4481C101.869 35.0913 101.403 34.6142 101.005 34.0168C100.606 33.4194 100.371 32.6711 100.301 31.7719C100.253 31.1622 100.294 30.4229 100.424 29.5538C100.555 28.6847 100.782 27.785 101.106 26.8547C101.444 25.908 101.883 24.9687 102.421 24.0368C102.973 23.0886 103.647 22.2304 104.443 21.4624C105.237 20.679 106.165 20.031 107.225 19.5181C108.284 18.99 109.482 18.6734 110.819 18.5681Z" fill="black"/>
<path d="M130.807 16.9951C131.476 16.9424 132.067 16.9802 132.582 17.1084C133.096 17.2366 133.536 17.386 133.901 17.5567C134.316 17.7694 134.686 18.0087 135.013 18.2743C135.215 18.1204 135.432 17.9729 135.666 17.8319C135.87 17.7084 136.098 17.5984 136.351 17.5019C136.602 17.3901 136.857 17.3241 137.115 17.3038C137.783 17.2511 138.311 17.3477 138.697 17.5933C139.083 17.8389 139.291 18.1523 139.321 18.5333C139.337 18.7314 139.299 18.9338 139.209 19.1403L134.673 29.6878L135.075 29.2651C136.785 28.0723 138.194 27.1333 139.302 26.448C140.409 25.7475 141.293 25.2255 141.954 24.8821C142.615 24.5387 143.087 24.3252 143.371 24.2415C143.669 24.1414 143.856 24.0883 143.932 24.0824C144.281 24.0549 144.558 24.1711 144.762 24.4311C144.98 24.6747 145.104 24.9946 145.136 25.3908C145.17 25.8328 145.077 26.2926 144.854 26.7702C144.647 27.2466 144.293 27.6041 143.792 27.8429C143.136 28.2473 142.368 28.6911 141.489 29.1744C140.609 29.6424 139.694 30.1591 138.744 30.7246C137.795 31.29 136.843 31.917 135.888 32.6056C134.948 33.2777 134.073 34.0137 133.264 34.8134L129.474 43.1859C129.178 44.0834 128.9 44.8184 128.639 45.391C128.393 45.9624 128.139 46.4195 127.875 46.7623C127.612 47.1051 127.333 47.3494 127.039 47.4952C126.745 47.6411 126.4 47.7295 126.005 47.7606C125.412 47.8073 124.925 47.6386 124.543 47.2546C124.177 46.8694 123.97 46.3872 123.925 45.808C123.877 45.1984 123.965 44.4783 124.191 43.6478C124.416 42.8173 124.749 41.9092 125.192 40.9236C125.65 39.952 126.211 38.9187 126.874 37.8237C127.538 36.744 128.284 35.6348 129.112 34.4961L131.653 30.6615C131.118 31.2404 130.584 31.7425 130.052 32.1678C129.52 32.5931 129.005 32.948 128.508 33.2325C128.009 33.5017 127.536 33.7077 127.089 33.8502C126.656 33.9916 126.273 34.0754 125.939 34.1017C125.331 34.1496 124.758 34.0566 124.22 33.823C123.681 33.574 123.201 33.213 122.782 32.74C122.377 32.2657 122.042 31.694 121.775 31.0249C121.509 30.3558 121.343 29.6173 121.28 28.8096C121.148 27.133 121.348 25.5914 121.879 24.1847C122.426 22.7768 123.163 21.5609 124.092 20.537C125.034 19.4967 126.093 18.6696 127.267 18.0558C128.457 17.4407 129.637 17.0871 130.807 16.9951ZM130.258 21.0869C129.544 21.1431 128.867 21.3804 128.227 21.7988C127.586 22.202 127.031 22.7211 126.561 23.3562C126.09 23.976 125.732 24.6789 125.488 25.4649C125.245 26.2509 125.154 27.0477 125.218 27.8555C125.237 28.0994 125.273 28.3649 125.326 28.6521C125.394 28.9229 125.498 29.1754 125.638 29.4097C125.794 29.6428 126 29.8336 126.257 29.9821C126.527 30.1142 126.882 30.1629 127.323 30.1282C127.642 30.1031 128.004 29.9366 128.407 29.6288C128.825 29.3045 129.245 28.9111 129.668 28.4485C130.104 27.9694 130.522 27.4534 130.922 26.9006C131.32 26.3324 131.675 25.7831 131.984 25.2527C132.31 24.721 132.563 24.2487 132.744 23.8357C132.925 23.4074 133.007 23.0942 132.992 22.8961C132.965 22.5608 132.851 22.2784 132.65 22.0488C132.447 21.8041 132.202 21.6087 131.916 21.4625C131.644 21.3152 131.353 21.2154 131.043 21.1631C130.748 21.0944 130.486 21.069 130.258 21.0869Z" fill="black"/>
<path d="M155.68 17.1768C156.079 16.8081 156.416 16.5285 156.692 16.3381C156.981 16.1313 157.229 15.9814 157.436 15.8885C157.642 15.7803 157.827 15.712 157.993 15.6836C158.174 15.654 158.356 15.632 158.539 15.6177C158.858 15.5926 159.095 15.6966 159.251 15.9297C159.406 16.1475 159.493 16.386 159.514 16.6451C159.531 16.8585 159.508 17.0596 159.447 17.2485L155.182 28.3268C155.868 27.7207 156.661 27.1215 157.563 26.5291C158.478 25.9203 159.352 25.3761 160.186 24.8964C161.034 24.4003 161.759 23.9982 162.361 23.6901C162.979 23.3808 163.334 23.2225 163.425 23.2153C163.805 23.1854 164.15 23.3039 164.462 23.5708C164.773 23.8376 164.946 24.1921 164.981 24.6341C165.012 25.0304 164.893 25.4614 164.624 25.9274C164.37 26.3921 163.887 26.8595 163.175 27.3296C162.158 28.0077 161.272 28.5912 160.515 29.0802C159.758 29.5539 159.088 29.9823 158.507 30.3654C157.925 30.7486 157.41 31.0958 156.961 31.4072C156.511 31.7187 156.085 32.0359 155.682 32.359C155.295 32.6808 154.909 33.0179 154.524 33.3703C154.155 33.7367 153.753 34.1594 153.316 34.6385C153.039 35.5805 152.758 36.4844 152.475 37.3501C152.207 38.2147 151.953 38.9784 151.715 39.6413C151.492 40.3029 151.305 40.8391 151.154 41.2497C151.002 41.6603 150.92 41.8815 150.908 41.9131C149.878 44.5705 148.627 45.9572 147.153 46.0732C146.545 46.1211 146.035 45.9542 145.623 45.5725C145.212 45.2062 144.98 44.68 144.926 43.9942C144.875 43.3541 144.901 42.7079 145.002 42.0558C145.12 41.4178 145.347 40.7022 145.682 39.9091C146.032 39.1147 146.497 38.2193 147.076 37.223C147.671 36.2406 148.42 35.0775 149.324 33.7335L153.153 24.1157C151.088 27.0081 149.184 29.2435 147.443 30.8221C145.703 32.4006 144.027 33.2533 142.416 33.38C141.9 33.4207 141.449 33.3334 141.066 33.1183C140.683 32.9184 140.47 32.5441 140.427 31.9954C140.367 31.2333 140.481 30.3578 140.77 29.3689C140.942 28.834 141.118 28.3448 141.297 27.9013C141.475 27.4425 141.661 26.9908 141.855 26.5461C142.049 26.0862 142.247 25.5952 142.45 25.0731C142.669 24.5498 142.898 23.9643 143.138 23.3167C143.391 22.6527 143.66 21.8954 143.945 21.0449C144.244 20.1779 144.57 19.1708 144.923 18.0235C145.18 17.4051 145.541 16.9473 146.007 16.6499C146.472 16.3373 146.932 16.1631 147.388 16.1272C147.859 16.0901 148.263 16.1734 148.6 16.3769C148.951 16.5639 149.141 16.8404 149.17 17.2062C149.184 17.3891 149.166 17.5515 149.116 17.6934L145.631 26.7321C145.453 27.1908 145.374 27.5497 145.395 27.8088C145.413 28.0374 145.513 28.1446 145.695 28.1302C145.862 28.1171 146.068 28.0165 146.313 27.8285C146.559 27.6405 146.787 27.4309 146.998 27.1996L155.68 17.1768Z" fill="black"/>
</g>
</g>
</svg>
